# xmcd
#
# Track frame offsets: 
#        150
#        18526
#        37815
#        53218
#        82927
#        98949
#        117159
#        148168
#        173197
#        193560
#        210882
#        235999
#        254125
#
# Disc length: 3622 seconds
#
# Revision: 0
# Processed by: cddbd v1.5.2PL0 Copyright (c) Steve Scherf et al.
# Submitted via: ExactAudioCopy v0.99pb3
#
DISCID=ae0e240d
DTITLE=Robert Plant and Alison Krauss - Raising Sand
DYEAR=2007
DGENRE=Bluegrass
TTITLE0=Rich Woman
TTITLE1=Killing the Blues
TTITLE2=Sister Rosetta Goes Before Us
TTITLE3=Polly Come Home
TTITLE4=Gone Gone Gone (Done Moved On)
TTITLE5=Through the Morning, Through the Night
TTITLE6=Please Read the Letter
TTITLE7=Trampled Rose
TTITLE8=Fortune Teller
TTITLE9=Stick with Me Baby
TTITLE10=Nothin'
TTITLE11=Let Your Loss Be Your Lesson
TTITLE12=Your Long Journey
EXTD=
EXTT0=
EXTT1=
EXTT2=
EXTT3=
EXTT4=
EXTT5=
EXTT6=
EXTT7=
EXTT8=
EXTT9=
EXTT10=
EXTT11=
EXTT12=
PLAYORDER=
